<?xml version="1.0" encoding="UTF-8"?>
<svg width="42px" height="50px" version="1.1" xmlns="http://www.w3.org/2000/svg" xmlns:xlink="http://www.w3.org/1999/xlink">
    <title>火灾</title>
    <g id="202106地图台" stroke="none" stroke-width="1" fill="none" fill-rule="evenodd">
        <g id="icon-" transform="translate(-1138.000000, -828.000000)" fill-rule="nonzero">
            <g id="火灾" transform="translate(1138.000000, 828.000000)">
                <path d="M20.9994706,1 C26.1196134,1 31.2403445,2.92557753 35.1477817,6.77999007 C38.8927505,10.4642019 41,15.4794378 41,20.7117634 C41,25.944089 38.8927505,30.959325 35.1469318,34.6443739 L35.1469318,34.6443739 L20.9995206,48.5955129 L6.85121066,34.6415038 C3.10685751,30.9573691 1,25.9425593 1,20.7107218 C1,15.4788842 3.10685751,10.4640744 6.85211899,6.77904492 C10.7585967,2.92557753 15.8793279,1 20.9994706,1 Z" id="路径" stroke="#F42626" stroke-width="2" fill="#15293C"></path>
                <path d="M18.6662849,33 C18.6662849,33 8.68786695,30.6590702 13.1473729,19.0388071 C13.1473729,19.0388071 14.1567775,20.3296002 14.0161484,20.9515562 C14.5005376,19.2263316 15.3599378,17.6261232 16.525597,16.2665712 C17.9943902,14.760125 19.4850589,10.528324 18.1068935,9 C22.3226422,10.1470244 25.3633565,13.8225029 25.6977413,18.1793202 C25.6977413,18.1793202 26.5790172,15.7415028 28.3665697,15.5008465 C28.0228096,16.5916135 28.0228096,17.7605157 28.3665697,18.8481573 C28.3665697,18.8481573 34.0261108,29.1745019 24.2758246,32.6655815 C24.2758246,32.6655815 27.1946603,29.1276208 20.9944782,23.0518297 C20.3257086,24.5739029 19.5475608,26.0428441 18.6631598,27.4524027 C18.6662849,27.4524027 16.2287133,30.3684073 18.6662849,33 Z" id="路径" fill="#F42626"></path>
            </g>
        </g>
    </g>
</svg>