<?xml version="1.0" encoding="UTF-8"?>
<svg width="42px" height="50px" viewBox="0 0 42 50" version="1.1" xmlns="http://www.w3.org/2000/svg" xmlns:xlink="http://www.w3.org/1999/xlink">
    <title>消防大队</title>
    <g id="202106地图台" stroke="none" stroke-width="1" fill="none" fill-rule="evenodd">
        <g id="icon-" transform="translate(-1176.000000, -575.000000)">
            <g id="消防大队" transform="translate(1176.000000, 575.000000)">
                <path d="M20.9994706,1 C26.1196134,1 31.2403445,2.92557753 35.1477817,6.77999007 C38.8927505,10.4642019 41,15.4794378 41,20.7117634 C41,25.944089 38.8927505,30.959325 35.1469318,34.6443739 L35.1469318,34.6443739 L20.9995206,48.5955129 L6.85121066,34.6415038 C3.10685751,30.9573691 1,25.9425593 1,20.7107218 C1,15.4788842 3.10685751,10.4640744 6.85211899,6.77904492 C10.7585967,2.92557753 15.8793279,1 20.9994706,1 Z" id="路径" stroke="#EA6555" stroke-width="2" fill="#15293C" fill-rule="nonzero"></path>
                <path d="M20.8817999,15.3910851 C19.743865,15.3910851 18.8308707,14.4725229 18.8308707,13.3526319 C18.8308707,12.9751406 19.1616657,12.2201579 19.1748975,12.1949918 C19.2013611,12.1194935 19.2807519,12.0943274 19.3469109,12.1069105 C19.3998381,12.1320766 19.4395335,12.1698257 19.4395335,12.2201579 C19.4527653,12.257907 19.4130699,12.3711544 19.3998381,12.3837375 C19.2675201,12.811561 19.2939837,13.2393845 19.4527653,13.4658793 C19.5321561,13.5791267 19.6644742,13.6294589 19.8232558,13.6294589 C20.0349646,13.6168758 20.07466,13.3148828 20.07466,12.5724831 C20.07466,12.3711544 19.9952692,12.1698257 19.9158784,11.98108 C19.8364876,11.7797513 19.7570968,11.6035887 19.7835604,11.4274261 C19.8364876,11.0876839 20.5113095,10.4585316 20.6436275,10.3452842 C20.6833229,10.3075351 20.7494819,10.2949521 20.8024091,10.3327012 C20.8553363,10.3704503 20.8817999,10.4333655 20.8685681,10.4836977 C20.8156409,10.6472773 20.6039321,12.1572427 20.9214953,12.6353984 C20.9611907,12.7108966 21.0273497,12.7486458 21.080277,12.7486458 C21.3052176,12.7863949 21.6360126,12.3334053 21.741867,11.679087 L21.741867,11.4400091 C21.741867,11.3141787 21.7550988,11.1883482 21.7550988,11.1757652 C21.7683306,11.125433 21.7947942,11.0751008 21.8609533,11.0625178 C21.9138805,11.0499347 21.9668077,11.0751008 22.0065031,11.11285 C22.1520529,11.3015956 22.6283978,11.9433309 22.5622388,12.257907 C22.5357751,12.3963205 22.4299207,12.5095679 22.3240663,12.6228153 C22.2314437,12.7234797 22.1388211,12.8367271 22.0858939,12.9625575 C21.9271123,13.365215 21.9271123,13.6923741 21.9932713,13.8307876 C22.0065031,13.8559537 22.0329667,13.8937028 22.0594303,13.9062859 C22.1785165,13.944035 22.4563843,13.7301232 22.6548614,13.2897167 C22.6548614,13.2897167 22.7077886,13.1135541 22.7871794,13.100971 C22.8533384,13.100971 22.9327292,13.1513032 22.9327292,13.2268015 L22.9327292,13.365215 C22.9327292,14.4851059 22.0065031,15.3910851 20.8817999,15.3910851 L20.8817999,15.3910851 Z M31.4407777,15.6175799 L22.2579073,8.40749536 C21.5566218,7.85384139 20.4319187,7.86642443 19.7174014,8.43266144 L10.5345309,15.6049969 C10.0714179,15.9699052 9.91263626,16.3222304 10.0449543,16.6745557 C10.1772723,17.0142979 10.5212991,17.1904605 11.063803,17.1904605 L11.6195387,17.1904605 L11.6195387,28.4145364 C11.6195387,29.2701834 12.3472878,29.9748339 13.2338185,29.9748339 L14.9274891,29.9748339 L14.9274891,17.7189484 C14.9274891,17.4295384 15.1788934,17.1904605 15.4832248,17.1904605 L26.5185475,17.1904605 C26.8228789,17.1904605 27.0742832,17.4295384 27.0742832,17.7189484 L27.0742832,29.9748339 L28.7679538,29.9748339 C29.6544845,29.9748339 30.3822336,29.2827665 30.3822336,28.4145364 L30.3822336,17.1904605 L30.9379693,17.1904605 C31.4937049,17.1904605 31.8377318,17.0142979 31.9700498,16.6745557 C32.1288314,16.1586509 31.6127912,15.7559934 31.4407777,15.6175799 Z M24.8513405,24.652206 L21.54339,24.652206 L21.54339,20.3865539 L24.2956048,20.3865539 C24.5999362,20.3865539 24.8513405,20.6256317 24.8513405,20.9150418 L24.8513405,24.652206 L24.8513405,24.652206 Z M23.3164515,27.4456419 C22.8930338,27.4456419 22.5622388,27.1184828 22.5622388,26.7158253 C22.5622388,26.3131679 22.9062656,25.9860088 23.3164515,25.9860088 C23.7398691,25.9860088 24.0706642,26.3131679 24.0706642,26.7158253 C24.083896,27.1184828 23.7398691,27.4456419 23.3164515,27.4456419 Z M20.4319187,24.652206 L17.1239682,24.652206 L17.1239682,20.9276248 C17.1239682,20.6382148 17.3753725,20.3991369 17.6797039,20.3991369 L20.4319187,20.3991369 L20.4319187,24.652206 Z M18.7117844,27.4456419 C18.2883668,27.4456419 17.9575717,27.1184828 17.9575717,26.7158253 C17.9575717,26.3131679 18.3015986,25.9860088 18.7117844,25.9860088 C19.1219703,25.9860088 19.4659971,26.3131679 19.4659971,26.7158253 C19.4659971,27.1184828 19.1352021,27.4456419 18.7117844,27.4456419 Z M24.2956048,19.3169951 L21.7550988,19.3169951 C21.7286352,18.7759242 21.3978402,18.3355176 20.9744225,18.3355176 C20.5510049,18.3355176 20.2202098,18.7633411 20.1937462,19.3169951 L17.6797039,19.3169951 C16.7667096,19.3169951 16.0257287,20.0342286 16.0257287,20.9150418 L16.0257287,27.3072284 C16.0257287,28.1251263 17.1239682,28.7920277 17.1239682,28.880109 L17.1239682,29.5973426 C17.1239682,29.8238374 17.7458629,30 18.2222078,30 C18.7117844,30 19.3204473,29.8112543 19.3204473,29.5973426 L19.3204473,28.9052751 L22.6283978,28.9052751 L22.6283978,29.5973426 C22.6283978,29.8238374 23.2502924,30 23.7266373,30 C24.2029822,30 24.8248769,29.8112543 24.8248769,29.5973426 L24.8248769,28.880109 C24.8248769,28.7668616 25.9231164,28.1125433 25.9231164,27.3072284 L25.9231164,20.9150418 C25.94958,20.0342286 25.2085991,19.3169951 24.2956048,19.3169951 L24.2956048,19.3169951 Z" id="形状" fill="#EA6555" fill-rule="nonzero"></path>
                <g id="编组-8" transform="translate(1.000000, 30.000000)">
                    <rect id="矩形" fill="#EA6555" x="0" y="0" width="40" height="14" rx="6.5"></rect>
                    <path d="M10.688,8.588 L10.688,7.964 L13.436,7.964 L13.436,7.064 L10.688,7.064 L10.688,6.38 L12.428,6.38 L12.428,5.504 L10.688,5.504 L10.688,4.868 L12.896,4.868 L12.896,4.148 L13.328,4.148 L13.328,2.036 L10.532,2.036 C10.424,1.676 10.316,1.352 10.208,1.064 L9.104,1.244 C9.224,1.484 9.344,1.748 9.44,2.036 L6.956,2.036 L6.956,4.16 L7.4,4.16 L7.4,4.868 L9.608,4.868 L9.608,5.504 L7.784,5.504 L7.784,6.38 L9.608,6.38 L9.608,7.064 L6.92,7.064 L6.92,7.964 L9.608,7.964 L9.608,8.588 L10.688,8.588 Z M5.816,12.236 L5.816,9.668 C6.212,9.572 6.596,9.488 6.98,9.392 L6.98,8.324 C6.608,8.42 6.224,8.504 5.816,8.588 L5.816,7.208 L6.704,7.208 L6.704,6.2 L5.816,6.2 L5.816,4.556 L4.712,4.556 L4.712,6.2 L3.752,6.2 C4.004,5.504 4.244,4.712 4.46,3.824 L6.584,3.824 L6.584,2.744 L4.7,2.744 C4.796,2.288 4.88,1.82 4.976,1.328 L3.86,1.172 C3.764,1.724 3.668,2.24 3.572,2.744 L2.528,2.744 L2.528,3.824 L3.332,3.824 C3.104,4.796 2.852,5.6 2.588,6.236 L2.828,7.208 L4.712,7.208 L4.712,8.792 C4.016,8.9 3.26,8.996 2.456,9.092 L2.612,10.208 C3.332,10.112 4.04,10.004 4.712,9.884 L4.712,12.236 L5.816,12.236 Z M9.608,3.956 L8,3.956 L8,3.008 L12.296,3.008 L12.296,3.956 L10.688,3.956 L10.688,3.392 L9.608,3.392 L9.608,3.956 Z M8.624,12.26 L8.624,11.816 L11.78,11.816 L11.78,12.26 L12.848,12.26 L12.848,8.804 L7.556,8.804 L7.556,12.26 L8.624,12.26 Z M11.78,10.892 L8.624,10.892 L8.624,9.74 L11.78,9.74 L11.78,10.892 Z M25.28,11.756 L25.28,10.664 L16.376,10.664 L16.376,2.708 L24.908,2.708 L24.908,1.616 L15.284,1.616 L15.284,11.756 L25.28,11.756 Z M17.672,10.088 C19.004,9.512 20.18,8.696 21.188,7.616 C22.052,8.432 22.808,9.236 23.456,10.004 L24.344,9.116 C23.624,8.324 22.82,7.52 21.956,6.728 C22.628,5.852 23.216,4.832 23.72,3.668 L22.688,3.116 C22.232,4.172 21.692,5.108 21.068,5.936 C20.156,5.132 19.16,4.328 18.104,3.524 L17.276,4.328 C18.38,5.168 19.4,5.996 20.312,6.812 C19.376,7.796 18.272,8.54 17.012,9.056 L17.672,10.088 Z M32.696,12.176 L32.696,11.432 L35.816,11.432 L35.816,12.164 L36.92,12.164 L36.92,6.356 L34.496,6.356 L34.496,4.268 L37.412,4.268 L37.412,3.164 L34.496,3.164 L34.496,1.148 L33.344,1.148 L33.344,6.356 L31.604,6.356 L31.604,12.176 L32.696,12.176 Z M31.424,4.16 L31.424,3.056 L29.552,3.056 C29.408,2.384 29.276,1.772 29.132,1.244 L27.98,1.424 C28.148,1.916 28.316,2.456 28.46,3.056 L26.636,3.056 L26.636,4.16 L31.424,4.16 Z M26.828,11.456 C28.388,11.204 29.84,10.892 31.196,10.52 L31.196,9.404 C30.86,9.5 30.512,9.596 30.152,9.692 C30.512,8.204 30.788,6.572 30.968,4.808 L29.864,4.652 C29.708,6.512 29.456,8.276 29.096,9.932 C28.268,10.112 27.428,10.256 26.564,10.364 L26.828,11.456 Z M27.704,9.668 L28.652,9.44 C28.424,7.664 28.172,6.08 27.896,4.7 L26.9,5.024 C27.224,6.512 27.488,8.06 27.704,9.668 Z M35.816,10.376 L32.696,10.376 L32.696,7.352 L35.816,7.352 L35.816,10.376 Z" id="辖区站" fill="#FFFFFF" fill-rule="nonzero"></path>
                </g>
            </g>
        </g>
    </g>
</svg>